General
Complete name                            : ../.././Samples/Plumiferos_persecucion_casting.mpg
Format                                   : MPEG-PS
File size                                : 36.2 MiB
Duration                                 : 3 min 38 s
Overall bit rate mode                    : Constant
Overall bit rate                         : 1 392 kb/s

Video
ID                                       : 224 (0xE0)
Format                                   : MPEG Video
Format version                           : Version 1
Format settings                          : CustomMatrix / BVOP
Format settings, BVOP                    : Yes
Format settings, Matrix                  : Custom
Format settings, GOP                     : Variable
Duration                                 : 3 min 38 s
Bit rate mode                            : Constant
Bit rate                                 : 1 150 kb/s
Width                                    : 352 pixels
Height                                   : 288 pixels
Display aspect ratio                     : 4:3
Frame rate                               : 25.000 FPS
Standard                                 : PAL
Color space                              : YUV
Chroma subsampling                       : 4:2:0
Bit depth                                : 8 bits
Scan type                                : Progressive
Compression mode                         : Lossy
Bits/(Pixel*Frame)                       : 0.454
Time code of first frame                 : 00:00:00:00
Time code source                         : Group of pictures header
Stream size                              : 29.6 MiB (82%)

Audio
ID                                       : 192 (0xC0)
Format                                   : MPEG Audio
Format version                           : Version 1
Format profile                           : Layer 2
Duration                                 : 3 min 37 s
Bit rate mode                            : Constant
Bit rate                                 : 224 kb/s
Channel(s)                               : 2 channels
Sampling rate                            : 44.1 kHz
Frame rate                               : 38.281 FPS (1152 SPF)
Compression mode                         : Lossy
Stream size                              : 5.82 MiB (16%)


General
Complete name                            : ../.././Samples/Plumiferos_persecucion_casting.mpg
Format                                   : MPEG-PS
File size                                : 36.2 MiB
Duration                                 : 3 min 38 s
Overall bit rate mode                    : Constant
Overall bit rate                         : 1 392 kb/s

Video
ID                                       : 224 (0xE0)
Format                                   : MPEG Video
Format version                           : Version 1
Format settings                          : CustomMatrix / BVOP
Format settings, BVOP                    : Yes
Format settings, Matrix                  : Custom
Format settings, GOP                     : Variable
Duration                                 : 3 min 38 s
Bit rate mode                            : Constant
Bit rate                                 : 1 150 kb/s
Width                                    : 352 pixels
Height                                   : 288 pixels
Display aspect ratio                     : 4:3
Frame rate                               : 25.000 FPS
Standard                                 : PAL
Color space                              : YUV
Chroma subsampling                       : 4:2:0
Bit depth                                : 8 bits
Scan type                                : Progressive
Compression mode                         : Lossy
Bits/(Pixel*Frame)                       : 0.454
Time code of first frame                 : 00:00:00:00
Time code source                         : Group of pictures header
Stream size                              : 29.6 MiB (82%)

Audio
ID                                       : 192 (0xC0)
Format                                   : MPEG Audio
Format version                           : Version 1
Format profile                           : Layer 2
Duration                                 : 3 min 37 s
Bit rate mode                            : Constant
Bit rate                                 : 224 kb/s
Channel(s)                               : 2 channels
Sampling rate                            : 44.1 kHz
Frame rate                               : 38.281 FPS (1152 SPF)
Compression mode                         : Lossy
Stream size                              : 5.82 MiB (16%)


